# xmcd
#
# Track frame offsets:
# 150
# 14512
# 32902
#
# Disc length: 595 seconds
#
#
# Revision: 0
# Processed by: cddbd v1.5PL3 Copyright (c) Steve Scherf et al.
# Submitted via: FreeRIP 2.60 
#
DISCID=1e025103
DTITLE=Manic Street Preachers - Stay Beautiful Re-Issue
DYEAR=1900
DGENRE=
TTITLE0=Stay Beautiful
TTITLE1=R. P. McMurphy
TTITLE2=Soul Contamination
EXTD=
EXTT0=
EXTT1=
EXTT2=
PLAYORDER=
